<svg xmlns="http://www.w3.org/2000/svg" version="1.1" xmlns:xlink="http://www.w3.org/1999/xlink" width="32" height="32"><svg xmlns="http://www.w3.org/2000/svg" version="1.1" xmlns:xlink="http://www.w3.org/1999/xlink" width="32" height="32"><svg width="32" height="32" viewBox="0 0 32 32" fill="none" xmlns="http://www.w3.org/2000/svg">
<circle cx="16" cy="16" r="16" fill="white"></circle>
<path d="M13.75 16.25H7.5V14.3929H9.23611V6.85709H7.5V5H13.75V6.85709H12.0139V14.3929H13.75V16.25Z" fill="#047B58"></path>
<path d="M21.8046 16.25C19.5505 16.25 17.699 15.6571 16.25 14.4713L18.2826 12.9891C19.2755 13.8389 20.5165 14.2638 22.0058 14.2638C22.7974 14.2638 23.4012 14.1403 23.8171 13.8933C24.233 13.6462 24.441 13.3053 24.441 12.8706C24.441 12.5247 24.3001 12.248 24.0183 12.0405C23.75 11.833 23.2804 11.6947 22.6096 11.6255L21.1807 11.4773C18.1887 11.1709 16.6928 10.0988 16.6928 8.26087C16.6928 7.61858 16.9141 7.0504 17.3569 6.55632C17.7996 6.06225 18.4302 5.68182 19.2487 5.41502C20.0805 5.13834 21.0532 5 22.1668 5C24.3135 5 26.004 5.51877 27.2384 6.55632L25.2057 8.03854C24.8166 7.70257 24.3605 7.44565 23.8372 7.26779C23.3274 7.08004 22.7102 6.98617 21.9857 6.98617C21.2478 6.98617 20.691 7.08498 20.3153 7.28261C19.9396 7.48024 19.7518 7.76186 19.7518 8.12747C19.7518 8.50296 19.8927 8.78459 20.1744 8.97233C20.4696 9.1502 20.9526 9.27866 21.6234 9.35771L23.0523 9.53557C24.5684 9.7332 25.6887 10.0889 26.4132 10.6028C27.1377 11.1166 27.5 11.8281 27.5 12.7372C27.5 13.4289 27.2719 14.0415 26.8157 14.5751C26.373 15.0988 25.7223 15.5089 24.8636 15.8053C24.0049 16.1018 22.9852 16.25 21.8046 16.25Z" fill="#047B58"></path>
<path d="M21.8046 27.5C19.5505 27.5 17.699 26.9071 16.25 25.7213L18.2826 24.2391C19.2755 25.0889 20.5165 25.5138 22.0058 25.5138C22.7974 25.5138 23.4012 25.3903 23.8171 25.1433C24.233 24.8962 24.441 24.5553 24.441 24.1206C24.441 23.7747 24.3001 23.498 24.0183 23.2905C23.75 23.083 23.2804 22.9447 22.6096 22.8755L21.1807 22.7273C18.1887 22.4209 16.6928 21.3488 16.6928 19.5109C16.6928 18.8686 16.9141 18.3004 17.3569 17.8063C17.7996 17.3123 18.4302 16.9318 19.2487 16.665C20.0805 16.3883 21.0532 16.25 22.1668 16.25C24.3135 16.25 26.004 16.7688 27.2384 17.8063L25.2057 19.2885C24.8166 18.9526 24.3605 18.6957 23.8372 18.5178C23.3274 18.33 22.7102 18.2362 21.9857 18.2362C21.2478 18.2362 20.691 18.335 20.3153 18.5326C19.9396 18.7302 19.7518 19.0119 19.7518 19.3775C19.7518 19.753 19.8927 20.0346 20.1744 20.2223C20.4696 20.4002 20.9526 20.5287 21.6234 20.6077L23.0523 20.7856C24.5684 20.9832 25.6887 21.3389 26.4132 21.8528C27.1377 22.3666 27.5 23.0781 27.5 23.9872C27.5 24.6789 27.2719 25.2915 26.8157 25.8251C26.373 26.3488 25.7223 26.7589 24.8636 27.0553C24.0049 27.3518 22.9852 27.5 21.8046 27.5Z" fill="#047B58"></path>
<path d="M7.32143 27.5H5V16.25H7.61364L10.6169 21.6218H10.6656L13.6201 16.25H16.25V27.5H13.9286V19.8721H13.8799L13.0032 21.545L10.6169 25.6429L8.27922 21.5604L7.37013 19.78H7.32143V27.5Z" fill="#047B58"></path>
</svg></svg><style>@media (prefers-color-scheme: light) { :root { filter: none; } }
@media (prefers-color-scheme: dark) { :root { filter: none; } }
</style></svg>