<svg width="1200" height="630" viewBox="0 0 1200 630" fill="none" xmlns="http://www.w3.org/2000/svg">
  <!-- Background - Clean white -->
  <rect width="1200" height="630" fill="#ffffff"/>

  <!-- Footer bar (center only) -->
  <rect x="285" y="505" width="630" height="125" fill="#f8fafb"/>
  <line x1="285" y1="505" x2="915" y2="505" stroke="#e8eef3" stroke-width="1"/>

  <!-- Side panels (outside square safe zone, full height) -->
  <rect x="0" y="0" width="285" height="630" fill="#f0fdf4"/>
  <rect x="915" y="0" width="285" height="630" fill="#f0fdf4"/>

  <!-- Top accent bar with brand color -->
  <rect width="1200" height="8" fill="#10b981"/>

  <!-- Bottom accent bar with brand color -->
  <rect y="622" width="1200" height="8" fill="#10b981"/>

  <!-- Left vertical accent bar (inner edge of safe zone) -->
  <rect x="285" y="0" width="8" height="630" fill="#10b981"/>

  <!-- Right vertical accent bar (inner edge of safe zone) -->
  <rect x="907" y="0" width="8" height="630" fill="#10b981"/>

  <!-- Site logo (scaled 2.5x, centered within safe zone 285-915, moved down) -->
  <g transform="translate(335, 100) scale(2.5)">
    <defs>
      <linearGradient id="logoGradient" x1="1" y1="0" x2="41" y2="50" gradientUnits="userSpaceOnUse">
        <stop stop-color="#059669"/>
        <stop offset="1" stop-color="#10B981"/>
      </linearGradient>
    </defs>
    <!-- Shield -->
    <path d="M21 0L41 10V30C41 45 21 50 21 50C21 50 1 45 1 30V10L21 0Z" fill="url(#logoGradient)"/>
    <!-- Shield inner elements -->
    <path d="M21 10L31 30L21 40L11 30L21 10Z" fill="white"/>
    <path d="M21 15L26 30L21 35L16 30L21 15Z" fill="#047857"/>
    <path d="M21 32C22.1046 32 23 31.1046 23 30C23 28.8954 22.1046 28 21 28C19.8954 28 19 28.8954 19 30C19 31.1046 19.8954 32 21 32Z" fill="white"/>
    <!-- ISMS text -->
    <path d="M48.324 32V12.4H52.86V32H48.324ZM63.9515 32.336C62.3835 32.336 60.8808 32.1307 59.4435 31.72C58.0062 31.2907 56.8488 30.74 55.9715 30.068L57.5115 26.652C58.3515 27.2493 59.3408 27.744 60.4795 28.136C61.6368 28.5093 62.8035 28.696 63.9795 28.696C64.8755 28.696 65.5942 28.612 66.1355 28.444C66.6955 28.2573 67.1062 28.0053 67.3675 27.688C67.6288 27.3707 67.7595 27.0067 67.7595 26.596C67.7595 26.0733 67.5542 25.6627 67.1435 25.364C66.7328 25.0467 66.1915 24.7947 65.5195 24.608C64.8475 24.4027 64.1008 24.216 63.2795 24.048C62.4768 23.8613 61.6648 23.6373 60.8435 23.376C60.0408 23.1147 59.3035 22.7787 58.6315 22.368C57.9595 21.9573 57.4088 21.416 56.9795 20.744C56.5688 20.072 56.3635 19.2133 56.3635 18.168C56.3635 17.048 56.6622 16.0307 57.2595 15.116C57.8755 14.1827 58.7902 13.4453 60.0035 12.904C61.2355 12.344 62.7755 12.064 64.6235 12.064C65.8555 12.064 67.0688 12.2133 68.2635 12.512C69.4582 12.792 70.5128 13.2213 71.4275 13.8L70.0275 17.244C69.1128 16.7213 68.1982 16.3387 67.2835 16.096C66.3688 15.8347 65.4728 15.704 64.5955 15.704C63.7182 15.704 62.9995 15.8067 62.4395 16.012C61.8795 16.2173 61.4782 16.488 61.2355 16.824C60.9928 17.1413 60.8715 17.5147 60.8715 17.944C60.8715 18.448 61.0768 18.8587 61.4875 19.176C61.8982 19.4747 62.4395 19.7173 63.1115 19.904C63.7835 20.0907 64.5208 20.2773 65.3235 20.464C66.1448 20.6507 66.9568 20.8653 67.7595 21.108C68.5808 21.3507 69.3275 21.6773 69.9995 22.088C70.6715 22.4987 71.2128 23.04 71.6235 23.712C72.0528 24.384 72.2675 25.2333 72.2675 26.26C72.2675 27.3613 71.9595 28.3693 71.3435 29.284C70.7275 30.1987 69.8035 30.936 68.5715 31.496C67.3582 32.056 65.8182 32.336 63.9515 32.336ZM75.367 32V12.4H79.119L87.463 26.232H85.475L93.679 12.4H97.403L97.459 32H93.203L93.175 18.924H93.959L87.407 29.928H85.363L78.671 18.924H79.623V32H75.367ZM108.549 32.336C106.981 32.336 105.478 32.1307 104.041 31.72C102.604 31.2907 101.446 30.74 100.569 30.068L102.109 26.652C102.949 27.2493 103.938 27.744 105.077 28.136C106.234 28.5093 107.401 28.696 108.577 28.696C109.473 28.696 110.192 28.612 110.733 28.444C111.293 28.2573 111.704 28.0053 111.965 27.688C112.226 27.3707 112.357 27.0067 112.357 26.596C112.357 26.0733 112.152 25.6627 111.741 25.364C111.33 25.0467 110.789 24.7947 110.117 24.608C109.445 24.4027 108.698 24.216 107.877 24.048C107.074 23.8613 106.262 23.6373 105.441 23.376C104.638 23.1147 103.901 22.7787 103.229 22.368C102.557 21.9573 102.006 21.416 101.577 20.744C101.166 20.072 100.961 19.2133 100.961 18.168C100.961 17.048 101.26 16.0307 101.857 15.116C102.473 14.1827 103.388 13.4453 104.601 12.904C105.833 12.344 107.373 12.064 109.221 12.064C110.453 12.064 111.666 12.2133 112.861 12.512C114.056 12.792 115.11 13.2213 116.025 13.8L114.625 17.244C113.71 16.7213 112.796 16.3387 111.881 16.096C110.966 15.8347 110.07 15.704 109.193 15.704C108.316 15.704 107.597 15.8067 107.037 16.012C106.477 16.2173 106.076 16.488 105.833 16.824C105.59 17.1413 105.469 17.5147 105.469 17.944C105.469 18.448 105.674 18.8587 106.085 19.176C106.496 19.4747 107.037 19.7173 107.709 19.904C108.381 20.0907 109.118 20.2773 109.921 20.464C110.742 20.6507 111.554 20.8653 112.357 21.108C113.178 21.3507 113.925 21.6773 114.597 22.088C115.269 22.4987 115.81 23.04 116.221 23.712C116.65 24.384 116.865 25.2333 116.865 26.26C116.865 27.3613 116.557 28.3693 115.941 29.284C115.325 30.1987 114.401 30.936 113.169 31.496C111.956 32.056 110.416 32.336 108.549 32.336Z" fill="#059669"/>
    <!-- Guide text -->
    <path d="M137.358 32.336C135.809 32.336 134.381 32.0933 133.074 31.608C131.786 31.104 130.657 30.3947 129.686 29.48C128.734 28.5653 127.988 27.492 127.446 26.26C126.924 25.028 126.662 23.6747 126.662 22.2C126.662 20.7253 126.924 19.372 127.446 18.14C127.988 16.908 128.744 15.8347 129.714 14.92C130.685 14.0053 131.824 13.3053 133.13 12.82C134.437 12.316 135.874 12.064 137.442 12.064C139.178 12.064 140.737 12.3533 142.118 12.932C143.518 13.5107 144.694 14.3507 145.646 15.452L142.734 18.14C142.025 17.3933 141.25 16.8427 140.41 16.488C139.57 16.1147 138.656 15.928 137.666 15.928C136.714 15.928 135.846 16.0773 135.062 16.376C134.278 16.6747 133.597 17.104 133.018 17.664C132.458 18.224 132.02 18.8867 131.702 19.652C131.404 20.4173 131.254 21.2667 131.254 22.2C131.254 23.1147 131.404 23.9547 131.702 24.72C132.02 25.4853 132.458 26.1573 133.018 26.736C133.597 27.296 134.269 27.7253 135.034 28.024C135.818 28.3227 136.677 28.472 137.61 28.472C138.506 28.472 139.374 28.332 140.214 28.052C141.073 27.7533 141.904 27.2587 142.706 26.568L145.282 29.844C144.218 30.6467 142.977 31.2627 141.558 31.692C140.158 32.1213 138.758 32.336 137.358 32.336ZM141.138 29.256V21.892H145.282V29.844L141.138 29.256ZM155.544 32.224C154.293 32.224 153.173 31.9813 152.184 31.496C151.213 31.0107 150.457 30.2733 149.916 29.284C149.375 28.276 149.104 26.9973 149.104 25.448V16.936H153.472V24.804C153.472 26.0547 153.733 26.9787 154.256 27.576C154.797 28.1547 155.553 28.444 156.524 28.444C157.196 28.444 157.793 28.304 158.316 28.024C158.839 27.7253 159.249 27.2773 159.548 26.68C159.847 26.064 159.996 25.2987 159.996 24.384V16.936H164.364V32H160.22V27.856L160.976 29.06C160.472 30.1053 159.725 30.8987 158.736 31.44C157.765 31.9627 156.701 32.224 155.544 32.224ZM168.411 32V16.936H172.779V32H168.411ZM170.595 14.836C169.792 14.836 169.139 14.6027 168.635 14.136C168.131 13.6693 167.879 13.0907 167.879 12.4C167.879 11.7093 168.131 11.1307 168.635 10.664C169.139 10.1973 169.792 9.964 170.595 9.964C171.397 9.964 172.051 10.188 172.555 10.636C173.059 11.0653 173.311 11.6253 173.311 12.316C173.311 13.044 173.059 13.6507 172.555 14.136C172.069 14.6027 171.416 14.836 170.595 14.836ZM183.3 32.224C181.882 32.224 180.603 31.9067 179.464 31.272C178.326 30.6187 177.42 29.7133 176.748 28.556C176.095 27.3987 175.768 26.036 175.768 24.468C175.768 22.8813 176.095 21.5093 176.748 20.352C177.42 19.1947 178.326 18.2987 179.464 17.664C180.603 17.0293 181.882 16.712 183.3 16.712C184.57 16.712 185.68 16.992 186.632 17.552C187.584 18.112 188.322 18.9613 188.844 20.1C189.367 21.2387 189.628 22.6947 189.628 24.468C189.628 26.2227 189.376 27.6787 188.872 28.836C188.368 29.9747 187.64 30.824 186.688 31.384C185.755 31.944 184.626 32.224 183.3 32.224ZM184.056 28.64C184.766 28.64 185.41 28.472 185.988 28.136C186.567 27.8 187.024 27.324 187.36 26.708C187.715 26.0733 187.892 25.3267 187.892 24.468C187.892 23.5907 187.715 22.844 187.36 22.228C187.024 21.612 186.567 21.136 185.988 20.8C185.41 20.464 184.766 20.296 184.056 20.296C183.328 20.296 182.675 20.464 182.096 20.8C181.518 21.136 181.051 21.612 180.696 22.228C180.36 22.844 180.192 23.5907 180.192 24.468C180.192 25.3267 180.36 26.0733 180.696 26.708C181.051 27.324 181.518 27.8 182.096 28.136C182.675 28.472 183.328 28.64 184.056 28.64ZM188.004 32V28.92L188.088 24.44L187.808 19.988V11.224H192.176V32H188.004ZM203.695 32.224C201.978 32.224 200.466 31.888 199.159 31.216C197.871 30.544 196.872 29.6293 196.163 28.472C195.454 27.296 195.099 25.9613 195.099 24.468C195.099 22.956 195.444 21.6213 196.135 20.464C196.844 19.288 197.806 18.3733 199.019 17.72C200.232 17.048 201.604 16.712 203.135 16.712C204.61 16.712 205.935 17.0293 207.111 17.664C208.306 18.28 209.248 19.176 209.939 20.352C210.63 21.5093 210.975 22.9 210.975 24.524C210.975 24.692 210.966 24.888 210.947 25.112C210.928 25.3173 210.91 25.5133 210.891 25.7H198.655V23.152H208.595L206.915 23.908C206.915 23.124 206.756 22.4427 206.439 21.864C206.122 21.2853 205.683 20.8373 205.123 20.52C204.563 20.184 203.91 20.016 203.163 20.016C202.416 20.016 201.754 20.184 201.175 20.52C200.615 20.8373 200.176 21.2947 199.859 21.892C199.542 22.4707 199.383 23.1613 199.383 23.964V24.636C199.383 25.4573 199.56 26.1853 199.915 26.82C200.288 27.436 200.802 27.912 201.455 28.248C202.127 28.5653 202.911 28.724 203.807 28.724C204.61 28.724 205.31 28.6027 205.907 28.36C206.523 28.1173 207.083 27.7533 207.587 27.268L209.911 29.788C209.22 30.572 208.352 31.1787 207.307 31.608C206.262 32.0187 205.058 32.224 203.695 32.224Z" fill="#10B981"/>
  </g>

  <!-- Line 1: ISO/IEC 27001:2022 対応 -->
  <text x="600" y="290" font-family="M PLUS 1p, Noto Sans JP, sans-serif" font-size="34" font-weight="500" fill="#059669" text-anchor="middle">ISO/IEC 27001:2022 対応</text>

  <!-- Line 2: 情報セキュリティマネジメントシステム -->
  <text x="600" y="340" font-family="M PLUS 1p, Noto Sans JP, sans-serif" font-size="28" font-weight="700" fill="#1a1a1a" text-anchor="middle">情報セキュリティマネジメントシステム</text>

  <!-- Line 3: ISMS構築ガイド -->
  <text x="600" y="420" font-family="M PLUS 1p, Noto Sans JP, sans-serif" font-size="56" font-weight="700" fill="#1a1a1a" text-anchor="middle">ISMS構築ガイド</text>

  <!-- Footer line 1: URL -->
  <text x="600" y="538" font-family="M PLUS 1p, Noto Sans JP, sans-serif" font-size="20" fill="#333333" text-anchor="middle">https://isms-guide.com</text>

  <!-- Footer line 2: CC BY-NC 4.0 icons (official paths, 30px) -->
  <g transform="translate(587, 563)">
    <!-- CC logo (official, 30px) -->
    <g transform="translate(-108, -15)">
      <path d="M14.972 0c4.196 0 7.769 1.465 10.715 4.393A14.426 14.426 0 0128.9 9.228C29.633 11.04 30 12.964 30 15c0 2.054-.363 3.978-1.085 5.772a13.77 13.77 0 01-3.2 4.754 15.417 15.417 0 01-4.983 3.322A14.932 14.932 0 0114.973 30c-1.982 0-3.88-.38-5.692-1.14a15.087 15.087 0 01-4.875-3.293c-1.437-1.437-2.531-3.058-3.281-4.862A14.71 14.71 0 010 15c0-1.982.38-3.888 1.138-5.719a15.062 15.062 0 013.308-4.915C7.303 1.456 10.812 0 14.972 0zm.055 2.706c-3.429 0-6.313 1.196-8.652 3.589a12.896 12.896 0 00-2.72 4.031 11.814 11.814 0 00-.95 4.675c0 1.607.316 3.156.95 4.646a12.428 12.428 0 002.72 3.992 12.362 12.362 0 003.99 2.679c1.483.616 3.037.924 4.662.924 1.607 0 3.164-.312 4.675-.937a12.954 12.954 0 004.084-2.705c2.339-2.286 3.508-5.152 3.508-8.6 0-1.66-.304-3.231-.91-4.713a11.994 11.994 0 00-2.651-3.965c-2.412-2.41-5.314-3.616-8.706-3.616zm-.188 9.803l-2.01 1.045c-.215-.445-.477-.758-.79-.937-.312-.178-.602-.268-.87-.268-1.34 0-2.01.884-2.01 2.652 0 .803.17 1.446.509 1.928.34.482.84.724 1.5.724.876 0 1.492-.43 1.85-1.286l1.847.937a4.407 4.407 0 01-1.634 1.728c-.696.42-1.464.63-2.303.63-1.34 0-2.42-.41-3.242-1.233-.821-.82-1.232-1.964-1.232-3.428 0-1.428.416-2.562 1.246-3.401.83-.84 1.879-1.26 3.147-1.26 1.858 0 3.188.723 3.992 2.17zm8.652 0l-1.983 1.045c-.214-.445-.478-.758-.79-.937-.313-.178-.613-.268-.897-.268-1.34 0-2.01.884-2.01 2.652 0 .803.17 1.446.51 1.928.338.482.838.724 1.5.724.874 0 1.49-.43 1.847-1.286l1.875.937a4.606 4.606 0 01-1.66 1.728c-.696.42-1.455.63-2.277.63-1.357 0-2.441-.41-3.253-1.233-.814-.82-1.22-1.964-1.22-3.428 0-1.428.415-2.562 1.246-3.401.83-.84 1.879-1.26 3.147-1.26 1.857 0 3.18.723 3.965 2.17z" fill="#333333"/>
    </g>

    <!-- BY icon (official, 30px) -->
    <g transform="translate(-74, -15)">
      <path d="M14.973 0c4.213 0 7.768 1.446 10.66 4.34C28.544 7.25 30 10.803 30 15c0 4.215-1.43 7.723-4.287 10.526C22.678 28.51 19.098 30 14.973 30c-4.054 0-7.571-1.474-10.553-4.42C1.474 22.633 0 19.107 0 15S1.474 7.34 4.42 4.34C7.313 1.446 10.83 0 14.973 0zm.054 2.706c-3.41 0-6.295 1.196-8.652 3.589-2.447 2.5-3.67 5.402-3.67 8.706 0 3.321 1.214 6.196 3.642 8.624 2.429 2.429 5.322 3.642 8.679 3.642 3.339 0 6.25-1.222 8.732-3.67 2.358-2.267 3.536-5.133 3.536-8.598 0-3.41-1.197-6.311-3.589-8.705-2.392-2.392-5.285-3.588-8.678-3.588zm4.018 8.57v6.134H17.33v7.286h-4.66V17.41h-1.714v-6.134a.93.93 0 01.28-.683.933.933 0 01.684-.281h6.161c.25 0 .474.093.67.28a.912.912 0 01.294.684zM12.91 7.42c0-1.41.696-2.116 2.09-2.116s2.09.705 2.09 2.116c0 1.393-.697 2.09-2.09 2.09-1.393 0-2.09-.697-2.09-2.09z" fill="#333333"/>
    </g>

    <!-- NC icon (official, 30px) -->
    <g transform="translate(-40, -15)">
      <path d="M14.973 0c4.214 0 7.768 1.446 10.66 4.339C28.544 7.232 30 10.786 30 15c0 4.215-1.429 7.723-4.287 10.527C22.678 28.51 19.097 30 14.973 30c-4.072 0-7.59-1.482-10.553-4.446C1.474 22.607 0 19.09 0 15c0-4.107 1.474-7.66 4.42-10.66C7.313 1.446 10.83 0 14.973 0zM3.375 10.956c-.446 1.232-.67 2.58-.67 4.045 0 3.321 1.214 6.196 3.642 8.624 2.447 2.412 5.34 3.617 8.679 3.617 3.375 0 6.285-1.223 8.733-3.67.875-.839 1.561-1.714 2.061-2.626l-5.651-2.518a3.866 3.866 0 01-1.433 2.317c-.76.598-1.657.943-2.693 1.031v2.304h-1.74v-2.304c-1.661-.017-3.18-.615-4.554-1.794l2.063-2.089c.981.91 2.098 1.366 3.348 1.366.517 0 .96-.116 1.326-.349.366-.231.55-.615.55-1.151 0-.376-.135-.68-.402-.911l-1.447-.617-1.767-.804-2.384-1.044-7.661-3.427zm11.652-8.278c-3.41 0-6.295 1.206-8.652 3.616-.59.59-1.143 1.26-1.66 2.01l5.732 2.571a3.513 3.513 0 011.42-1.888c.695-.473 1.508-.737 2.437-.79V5.893h1.741v2.304c1.376.071 2.625.535 3.75 1.392L17.84 11.6c-.84-.59-1.697-.884-2.572-.884-.464 0-.88.09-1.245.267-.366.179-.55.483-.55.911 0 .125.045.25.134.375l1.902.858 1.313.59 2.41 1.07 7.687 3.429c.25-1.054.375-2.125.375-3.214 0-3.447-1.196-6.349-3.588-8.707-2.375-2.41-5.27-3.616-8.68-3.616z" fill="#333333"/>
    </g>

    <!-- Text label -->
    <text x="0" y="7" font-family="M PLUS 1p, Noto Sans JP, sans-serif" font-size="18" font-weight="600" fill="#333333">CC BY-NC 4.0</text>
  </g>

  <!-- Footer line 3: Copyright -->
  <text x="600" y="602" font-family="M PLUS 1p, Noto Sans JP, sans-serif" font-size="20" fill="#333333" text-anchor="middle">2026 Business Technology Association Japan</text>
</svg>
